# xmcd
#
# Track frame offsets: 
#        150
#        16649
#        29066
#        44360
#        60909
#        73561
#        88779
#        103267
#        113238
#        125390
#        135357
#        151930
#        171481
#        180756
#        193055
#        218242
#
# Disc length: 3223 seconds
#
# Revision: 3
# Processed by: cddbd v1.5.2PL0 Copyright (c) Steve Scherf et al.
# Submitted via: ExactAudioCopy v1.2
#
DISCID=d50c9510
DTITLE=Charlie Parker - The Last Notes 1953-1954 CD2
DYEAR=1954
DGENRE=Jazz
TTITLE0=I Get a Kick Out ofYou
TTITLE1=Just One Of Those Things
TTITLE2=My Heart Belongs to Daddy
TTITLE3=I've Got You Under My Skin
TTITLE4=Night and Day
TTITLE5=My Funny Valentine
TTITLE6=Cherokee
TTITLE7=What Is The Thing Called Love
TTITLE8=Repetition
TTITLE9=Easy to Love
TTITLE10=East of theSun
TTITLE11=The Song Is You
TTITLE12=My Funny Valentine
TTITLE13=Cool Blues
TTITLE14=Love For Sale
TTITLE15=I Love Paris
EXTD=YEAR: 1954
EXTT0=
EXTT1=
EXTT2=
EXTT3=
EXTT4=
EXTT5=
EXTT6=
EXTT7=
EXTT8=
EXTT9=
EXTT10=
EXTT11=
EXTT12=
EXTT13=
EXTT14=
EXTT15=
PLAYORDER=
